# xmcd CD database file
#
# Track frame offsets:
#	150
#	20314
#	44116
#	53843
#	72842
#	86491
#	98825
#	113722
#	138854
#	151951
#	160140
#	168068
#	175735
#	181469
#	186376
#
# Disc length: 2711 seconds
#
# Revision: 0
# Processed by: cddbd v1.5.1PL0 Copyright (c) Steve Scherf et al.
# Submitted via: CDex 1.51
#
DISCID=be0a950f
DTITLE=AliceQuartet - VoiceConcerto vol.3 ESPRESSIVO
DYEAR=2004
DGENRE=JPop
TTITLE0=01：プロローグ
TTITLE1=02：一人だけ　すごくない　すー
TTITLE2=03：今すぐ誘いに行きましょ
TTITLE3=04：ボクは家庭教師？
TTITLE4=05：マリア様が泣いている
TTITLE5=06：流派　藍原流
TTITLE6=07：ごめんなさいマリアさん
TTITLE7=08：勉強もお店もがんばります！
TTITLE8=09：エピローグ
TTITLE9=10：ありかるおよーふく講座１
TTITLE10=11：ありかるおよーふく講座２
TTITLE11=12：ありかるおよーふく講座３
TTITLE12=13：ありかるおよーふく講座４
TTITLE13=14：次回予告だよっ
TTITLE14=15：自由気ままにね（歌：織倉翠夏）
EXTD=YEAR: 2004
EXTT0=
EXTT1=
EXTT2=
EXTT3=
EXTT4=
EXTT5=
EXTT6=
EXTT7=
EXTT8=
EXTT9=
EXTT10=
EXTT11=
EXTT12=
EXTT13=
EXTT14=
PLAYORDER=
